<svg height="135.238" viewBox="0 0 135.345 135.238" width="135.345" xmlns="http://www.w3.org/2000/svg"><g fill="#06f"><path d="m298.853 171.1c-.834 0-1.674.064-2.5-.013a3.382 3.382 0 0 1 .022-6.765 39.163 39.163 0 0 1 5.229.022 3.215 3.215 0 0 1 3.154 3.261 3.375 3.375 0 0 1 -3.175 3.481c-.9.081-1.818.014-2.729.014" transform="translate(-174.517 -97.828)"/><path d="m120.462 34.16c3.945-4.04 7.886-8.018 11.734-12.085a4.831 4.831 0 0 0 .772-2.308 36.666 36.666 0 0 0 .7-4.487 11.241 11.241 0 0 1 4.964-8.948 75.43 75.43 0 0 0 5.768-5.149c2.2-1.918 4.82-1.508 5.594 1.245 1.2 4.274 3.47 7.008 7.808 8.413 2.7.872 2.988 3.7.913 5.679q-4.194 4.006-8.616 7.768a5.959 5.959 0 0 1 -2.87 1.165c-2.844.429-5.738.554-8.565 1.065a6.223 6.223 0 0 0 -3.01 1.725q-21.429 21.21-42.774 42.5c-.43.428-.839.881-1.3 1.277-1.713 1.48-3.441 1.521-4.869.142a3.288 3.288 0 0 1 .074-4.875c2.415-2.6 4.943-5.1 7.418-7.64-4.511-3.423-12.394-1.288-15.5 4.339a11.751 11.751 0 0 0 13.16 17.284 11.023 11.023 0 0 0 8.577-9.751c.118-.826.181-1.662.351-2.477a3.165 3.165 0 0 1 3.53-2.823c1.882.155 2.926 1.394 3.026 3.368.446 8.882-7 17.652-15.89 18.681-11.431 1.326-20.967-6.784-21.048-18.226-.049-6.811 2.81-12.415 8.762-15.971a18.02 18.02 0 0 1 18.81-.4c.464.25.92.515 1.421.8l5.388-5.432a25.981 25.981 0 0 0 -28.4-2.368c-9.169 5.045-14.728 15.429-13.583 25.36 1.78 15.445 13.535 25.493 28.985 23.923a25.8 25.8 0 0 0 23.26-27.9 45.758 45.758 0 0 0 -1.752-7.944c-.681-2.487-.166-4.212 1.765-4.945 1.972-.75 3.5.129 4.517 2.6 7.852 19.042-4.7 41.457-25.017 44.688-16.512 2.627-31.815-6.318-36.95-22.215a32.993 32.993 0 0 1 51-36.911c.362.263.742.5 1.173.79l5.246-5.448a38.982 38.982 0 0 0 -25.451-9.669 39.155 39.155 0 0 0 -28.983 11.537c-8.684 8.514-12.73 18.984-12.272 31.174a40.4 40.4 0 0 0 29 37.32c14.462 4.143 27.621 1 38.927-9.026 13.61-12.07 17.449-33.055 8.688-49.032-.884-1.612-1.5-3.411-.017-4.82a4.5 4.5 0 0 1 3.393-.983 4.186 4.186 0 0 1 2.393 2.123 47.858 47.858 0 0 1 -18.7 64.213 47.164 47.164 0 0 1 -53.72-5.325 47.53 47.53 0 0 1 59.665-73.981c.709.558 1.421 1.112 2.5 1.96m19.6-14.967a10.025 10.025 0 0 0 10.212-4.6c-3.046-.272-4.121-2.51-4.8-4.931a9.531 9.531 0 0 0 -5.409 9.531" transform="translate(-24.731 .001)"/><path d="m5.917 164.355c.829 0 1.663-.055 2.486.011a3.616 3.616 0 0 1 3.384 3.334 3.578 3.578 0 0 1 -3.273 3.427 42.709 42.709 0 0 1 -5.2 0 3.329 3.329 0 0 1 -3.314-3.317 3.405 3.405 0 0 1 3.43-3.455c.826-.054 1.658-.008 2.487-.008z" transform="translate(0 -97.878)"/><path d="m153.067 311.445c0-.909-.04-1.82.01-2.726a2.853 2.853 0 0 1 2.923-2.878c1.717-.16 3.193.563 3.417 2.272a26.427 26.427 0 0 1 .024 6.764 2.853 2.853 0 0 1 -3.484 2.482 2.99 2.99 0 0 1 -2.872-2.962c-.08-.978-.015-1.968-.013-2.952" transform="translate(-91.155 -182.154)"/><path d="m153.016 16.867c0-.832-.007-1.665 0-2.5a2.93 2.93 0 0 1 2.9-3.137 2.975 2.975 0 0 1 3.573 2.677 26.641 26.641 0 0 1 .054 5.872 3.272 3.272 0 0 1 -6.528-.419c-.015-.832 0-1.664 0-2.5" transform="translate(-91.138 -6.675)"/></g></svg>