<svg height="120.461" viewBox="0 0 120.435 120.461" width="120.435" xmlns="http://www.w3.org/2000/svg"><g fill="#06f"><path d="m673.41 20.1v103.524a5.742 5.742 0 0 0 -.237.638 9.387 9.387 0 0 1 -3.925 5.879 30.252 30.252 0 0 1 -4.306 1.953h-103.5a2.263 2.263 0 0 0 -.41-.2c-5.179-1.335-8.05-5.031-8.056-10.388q-.006-5.351 0-10.7 0-44.223.042-88.445a12.169 12.169 0 0 1 1-4.989c1.829-3.918 5.129-5.738 9.442-5.738h99.478c.275 0 .55-.006.823.011a9.121 9.121 0 0 1 7.209 3.6 31.6 31.6 0 0 1 2.44 4.855m-4.01 11.718h-112.413v1.324q0 43.994 0 87.989c0 4.537 2.427 6.95 6.986 6.95q49.218 0 98.436 0c4.559 0 6.987-2.413 6.987-6.95q0-43.995 0-87.989zm-112.4-4.264h112.392c0-2.014.077-3.936-.033-5.847a7.264 7.264 0 0 0 -.728-2.807c-1.267-2.491-3.514-3.262-6.167-3.261q-49.272.012-98.544.005c-.2 0-.392 0-.588 0-3.641.107-6.063 2.324-6.306 5.946-.126 1.95-.026 3.91-.026 5.964" transform="translate(-552.975 -11.633)"/><path d="m620.971 147.213a40.178 40.178 0 1 1 40.168 40.173 40.2 40.2 0 0 1 -40.168-40.173m61.36 2.126a1.543 1.543 0 0 0 -.137.383 74.366 74.366 0 0 1 -1.933 14.744c-.062.259.291.763.58.934 1.242.737 2.567 1.336 3.8 2.093 1.419.874 2.768 1.862 4.136 2.793 4.555-4.771 8.462-14.649 8.289-20.947zm-57.153-.005a35.727 35.727 0 0 0 8.189 20.84c2.718-1.6 5.288-3.15 7.906-4.615a1.156 1.156 0 0 0 .711-1.54 63.668 63.668 0 0 1 -1.78-13.225c-.009-.488-.1-.975-.158-1.459zm.008-4.3h14.914c.045-.578.065-1.045.121-1.508.467-3.835.862-7.681 1.44-11.5.393-2.6.508-2.579-1.853-3.857-.275-.149-.553-.295-.816-.463-1.834-1.173-3.664-2.351-5.547-3.56a35.919 35.919 0 0 0 -8.255 20.888m63.78-20.768c-2.851 1.657-5.591 3.226-8.3 4.856a1.19 1.19 0 0 0 -.375 1.029 66.2 66.2 0 0 1 1.817 13.923c.012.886.362 1.1 1.2 1.1 4.268-.039 8.535-.016 12.8-.022.332 0 .665-.053 1.013-.083a35.915 35.915 0 0 0 -8.168-20.8m-42.883 38.966 12.924-2.354v-11.538h-14.69c-.316 2.6.889 11.789 1.766 13.888m30.224.014a63.705 63.705 0 0 0 1.784-13.884h-14.81v11.512zm-13.018-18.184h14.859a65.656 65.656 0 0 0 -1.859-13.885l-13 2.4zm-17.28-13.885a65.709 65.709 0 0 0 -1.791 13.909h14.8v-11.518zm13.019 51.754v-17.53c-2.513-.306-9.917 1.142-11.73 2.272a30.988 30.988 0 0 0 6.3 11.672 10.908 10.908 0 0 0 5.43 3.586m4.286-17.951v17.908c5.4-1.154 10.324-9.71 11.725-15.691zm-4.282-53.7c-6.922 3.121-9.445 9.247-11.834 15.52 2.849 1.3 9.36 2.5 11.834 2.2zm4.268.209v17.527c2.766.275 10.055-1.145 11.756-2.284a34.894 34.894 0 0 0 -4.832-9.836c-1.783-2.419-3.849-4.511-6.924-5.407m22.768 61.744-7.083-4.349a38.278 38.278 0 0 1 -6.755 12.63 36.237 36.237 0 0 0 13.838-8.281m-.059-52.102a35.586 35.586 0 0 0 -13.476-8.112c1.3 2.071 2.64 3.959 3.718 5.984s1.883 4.163 2.852 6.353c1.068-.58 2.151-1.111 3.174-1.74 1.226-.755 2.4-1.594 3.731-2.486m-49.664 52.054c3.019 3.34 10.8 7.936 13.561 8.049a37.755 37.755 0 0 1 -6.573-12.355l-6.987 4.306m-.073-51.991 7.078 4.359a38.446 38.446 0 0 1 6.736-12.633 35.871 35.871 0 0 0 -13.814 8.275" transform="translate(-600.94 -78.955)"/><path d="m718.477 38.8q16.58 0 33.159 0a8.294 8.294 0 0 1 1.291.04 1.973 1.973 0 0 1 1.714 2.051 1.919 1.919 0 0 1 -1.841 1.909 11.462 11.462 0 0 1 -1.174.037q-33.1 0-66.2 0a11.3 11.3 0 0 1 -1.174-.039 1.994 1.994 0 0 1 -1.859-1.918 2.052 2.052 0 0 1 1.64-2.02 6.687 6.687 0 0 1 1.287-.062q16.58 0 33.159 0" transform="translate(-644.265 -30.791)"/><path d="m650.266 42.823a1.99 1.99 0 0 1 -1.927-2.074 2.048 2.048 0 0 1 2.1-1.93 2.085 2.085 0 0 1 1.947 1.984 2.027 2.027 0 0 1 -2.124 2.02" transform="translate(-620.242 -30.808)"/></g></svg>