<svg xmlns="http://www.w3.org/2000/svg" width="125.391" height="125.374" viewBox="0 0 125.391 125.374">
  <g id="Grupo_206" data-name="Grupo 206" transform="translate(0)">
    <path id="Trazado_824" data-name="Trazado 824" d="M1175.448,0c1.039.152,2.081.285,3.116.458a2.424,2.424,0,0,1,2.249,2.794,2.532,2.532,0,0,1-2.847,2.095c-2.033-.137-4.063-.4-6.1-.429a57.753,57.753,0,0,0-24.353,110.489,56.325,56.325,0,0,0,29.083,4.79,57.538,57.538,0,0,0,50.341-43.153c4.385-17.146,1.261-33.111-8.747-47.715-.177-.258-.389-.491-.838-1.052,0,1.1.034,1.849-.007,2.595a2.379,2.379,0,0,1-2.4,2.414,2.417,2.417,0,0,1-2.476-2.364q-.085-4.711,0-9.425a2.336,2.336,0,0,1,2.429-2.387q4.712-.049,9.426.005a2.3,2.3,0,0,1,2.325,2.335,2.372,2.372,0,0,1-2.277,2.526c-.609.042-1.223.011-1.836.012H1220.5c.247.4.4.692.6.955a61.211,61.211,0,0,1,11.8,27.45,62.7,62.7,0,0,1-122.646,25.623c-.826-3.216-1.118-6.571-1.663-9.86-.059-.358-.158-.709-.238-1.063V58.278c.186-1.448.35-2.9.562-4.345A62.823,62.823,0,0,1,1159.885.992c2.235-.407,4.5-.665,6.748-.992Z" transform="translate(-1108.354 0)" fill="#06f"/>
    <path id="Trazado_825" data-name="Trazado 825" d="M1242.762,92.856a41.991,41.991,0,0,0-34.345-41.37,41.119,41.119,0,0,0-29.024,5.344c-.281.166-.553.348-.845.492a2.447,2.447,0,0,1-3.3-.89,2.409,2.409,0,0,1,.912-3.386,64.344,64.344,0,0,1,6.945-3.566,46.678,46.678,0,0,1,61.7,27.069c9.813,26.256-6.121,55.607-33.488,61.685a46.685,46.685,0,0,1-56.312-36.865,45.921,45.921,0,0,1,6.128-33.228c.942-1.563,2.277-2.011,3.574-1.252,1.344.786,1.611,2.229.632,3.824A41.815,41.815,0,0,0,1159.32,96.2c1.161,16.244,12.527,31.1,28.156,36,16.849,5.284,31.743,1.56,44.1-11.137a39.244,39.244,0,0,0,10.807-23.181c.055-.445.159-.885.187-1.331.083-1.3.138-2.607.194-3.7" transform="translate(-1138.254 -29.991)" fill="#06f"/>
    <path id="Trazado_826" data-name="Trazado 826" d="M1258.049,142.244a8.43,8.43,0,0,1-7.9-11.357,1.552,1.552,0,0,0-.459-1.981c-2.457-2.387-4.863-4.827-7.281-7.255a2.422,2.422,0,0,1-.517-3.018,2.211,2.211,0,0,1,2.677-1.2,3.854,3.854,0,0,1,1.611,1.021q3.63,3.551,7.183,7.18a1.218,1.218,0,0,0,1.583.332,7.568,7.568,0,0,1,6.062-.039,1.449,1.449,0,0,0,1.873-.466q7.673-7.729,15.391-15.412c.809-.81,1.659-1.455,2.912-1.034a2.39,2.39,0,0,1,1.341,3.636,6.737,6.737,0,0,1-.959,1.1q-7.609,7.619-15.24,15.217a1.484,1.484,0,0,0-.416,1.882,8.424,8.424,0,0,1-7.857,11.388m.012-11.925a3.472,3.472,0,1,0,3.446,3.5,3.394,3.394,0,0,0-3.446-3.5" transform="translate(-1195.346 -71.102)" fill="#06f"/>
    <path id="Trazado_827" data-name="Trazado 827" d="M1286.829,77.278c0,.528.03,1.059-.007,1.584a2.329,2.329,0,0,1-2.354,2.294,2.363,2.363,0,0,1-2.5-2.166,23.7,23.7,0,0,1,0-3.533,2.436,2.436,0,0,1,4.853.115c.039.566.006,1.137.006,1.706" transform="translate(-1221.681 -47.854)" fill="#06f"/>
    <path id="Trazado_828" data-name="Trazado 828" d="M1185.563,178.389c-.528,0-1.058.033-1.584,0a2.408,2.408,0,0,1-2.339-2.467A2.328,2.328,0,0,1,1184,173.51c1.055-.04,2.115-.04,3.169,0a2.318,2.318,0,0,1,2.336,2.308,2.41,2.41,0,0,1-2.241,2.559c-.564.052-1.137.009-1.706.01" transform="translate(-1156.209 -113.281)" fill="#06f"/>
    <path id="Trazado_829" data-name="Trazado 829" d="M1377.537,178.476c-.528,0-1.058.028-1.584-.007a2.327,2.327,0,0,1-2.272-2.371,2.366,2.366,0,0,1,2.185-2.481,24.194,24.194,0,0,1,3.532,0,2.435,2.435,0,0,1-.155,4.85c-.567.034-1.137.006-1.706,0" transform="translate(-1281.61 -113.33)" fill="#06f"/>
    <path id="Trazado_830" data-name="Trazado 830" d="M1286.739,269.268c0,.528.031,1.059-.007,1.584a2.4,2.4,0,0,1-2.46,2.345,2.324,2.324,0,0,1-2.416-2.355c-.046-1.055-.047-2.114,0-3.169a2.32,2.32,0,0,1,2.423-2.343,2.412,2.412,0,0,1,2.453,2.353c.037.526.006,1.056.007,1.584" transform="translate(-1221.627 -173.258)" fill="#06f"/>
    <path id="Trazado_831" data-name="Trazado 831" d="M1335.624,9.45a2.412,2.412,0,0,1-2.45,2.467,2.529,2.529,0,0,1-2.449-2.511,2.441,2.441,0,0,1,2.432-2.374,2.355,2.355,0,0,1,2.468,2.419" transform="translate(-1253.56 -4.591)" fill="#06f"/>
    <path id="Trazado_832" data-name="Trazado 832" d="M1196.552,85.763A2.358,2.358,0,0,1,1194.1,88.2a2.4,2.4,0,0,1-2.429-2.36,2.477,2.477,0,0,1,2.417-2.519,2.406,2.406,0,0,1,2.465,2.446" transform="translate(-1162.758 -54.405)" fill="#06f"/>
  </g>
</svg>
