<svg height="29.075" viewBox="0 0 47.461 29.075" width="47.461" xmlns="http://www.w3.org/2000/svg"><g fill="#06f" stroke="#06f"><path d="m4.242 10.221c-2.266.032-3.661-.857-4.121-2.574a3.492 3.492 0 0 1 5.9-3.313c1.291 1.4 1.274 2.929-.157 5.145 2.052 1.282 4.052 2.654 6.167 3.816a3.925 3.925 0 0 0 4.969-.95c1.5-1.529 2.863-3.185 4.283-4.789.2-.225.377-.469.566-.7-1.987-1.438-2.567-2.782-1.949-4.52a3.477 3.477 0 0 1 6.666.327c.446 1.631-.221 3.01-2.072 4.174.59.728 1.139 1.48 1.765 2.163 1.166 1.271 2.312 2.572 3.586 3.728a3.791 3.791 0 0 0 4.746.449c2-1.163 3.918-2.462 5.934-3.742a4.025 4.025 0 0 1 -1.146-2.889 3.5 3.5 0 0 1 6.563-1.486 3.344 3.344 0 0 1 -.142 3.61 3.24 3.24 0 0 1 -3.2 1.542c-.468-.055-.549.207-.668.527q-2.067 5.516-4.143 11.028c-.358.952-.414.993-1.423.993q-13.2 0-26.4 0c-1.006 0-1.049-.035-1.412-1.007l-4.1-10.977c-.068-.181-.138-.361-.213-.555m18.959-2.661c-.156.192-.261.331-.378.461-1.632 1.825-3.182 3.735-4.922 5.451a5.373 5.373 0 0 1 -6.909.943c-1.235-.649-2.392-1.447-3.577-2.188-.337-.211-.65-.461-1.066-.759a3.176 3.176 0 0 0 .074.388c1.124 3 2.261 6 3.365 9.008.15.408.387.451.742.45q12.645-.007 25.29.006a.721.721 0 0 0 .8-.557c.74-2.049 1.507-4.087 2.268-6.129.38-1.02.765-2.037 1.14-3.033-1.542.941-3.018 1.924-4.568 2.769a5.4 5.4 0 0 1 -6.732-.659 42.3 42.3 0 0 1 -3.151-3.246c-.829-.919-1.576-1.917-2.376-2.905m19.675 1.214a1.985 1.985 0 0 0 2.034-2.027 2.039 2.039 0 1 0 -4.078.012 1.983 1.983 0 0 0 2.045 2.015m-17.668-5.268a2 2 0 0 0 -2.044-2.02 2.052 2.052 0 0 0 -2.036 2.046 2.108 2.108 0 0 0 2.058 2.043 2.08 2.08 0 0 0 2.022-2.07m-21.715 5.267a1.988 1.988 0 0 0 2.033-2.023 2.072 2.072 0 0 0 -2.037-2.049 2.118 2.118 0 0 0 -2.05 2.057 2.038 2.038 0 0 0 2.054 2.02" transform="translate(.544 .5)"/><path d="m78.84 180.9h-13.656c-.219 0-.505.072-.64-.038a1.29 1.29 0 0 1 -.528-.764c-.008-.208.338-.48.583-.628.163-.1.427-.032.645-.032h27.115c.918 0 1.3.215 1.3.725s-.391.737-1.3.737z" transform="translate(-55.06 -152.345)"/></g></svg>