<svg id="Grupo_243" data-name="Grupo 243" xmlns="http://www.w3.org/2000/svg" xmlns:xlink="http://www.w3.org/1999/xlink" width="124.422" height="124.395" viewBox="0 0 124.422 124.395">
  <defs>
    <clipPath id="clip-path">
      <rect id="Rectángulo_1500" data-name="Rectángulo 1500" width="124.422" height="124.395" fill="#008cff"/>
    </clipPath>
  </defs>
  <g id="Grupo_242" data-name="Grupo 242" clip-path="url(#clip-path)">
    <path id="Trazado_876" data-name="Trazado 876" d="M0,56.439Q0,32.172.023,7.905A20,20,0,0,1,.473,3.769,4.628,4.628,0,0,1,4.9.023C5.453-.018,6.013.009,6.571.009H91.3c4.356,0,6.243,1.787,6.271,6.2.055,8.577.067,17.154-.021,25.731-.019,1.78.53,2.206,2.248,2.182,6.972-.1,13.946-.049,20.92-.037,3.064.005,3.7.637,3.7,3.65q.006,34.727,0,69.453c-.006,7.426-3.827,13.732-10.262,15.969a28.824,28.824,0,0,1-9.244,1.174q-44.036.122-88.072.037c-8.906-.009-15.513-6-16.446-14.824a64.742,64.742,0,0,1-.367-6.666Q-.026,79.66,0,56.439m96.742,62.674c-4.143-4.886-4.407-10.169-4.4-15.6.051-31.871.006-63.742.068-95.612,0-2.11-.566-2.7-2.7-2.694Q48.71,5.318,7.7,5.215c-2.007,0-2.6.54-2.591,2.569.07,20.434.042,40.867.042,61.3,0,12.2-.07,24.409.026,36.613.067,8.595,4.335,13.6,13.425,13.507,25.1-.266,50.211-.092,75.317-.091Zm.84-44.558q0,15.576.007,31.152a26.934,26.934,0,0,0,.175,3.546,10.9,10.9,0,0,0,4.7,8.044,10.187,10.187,0,0,0,10.906.544c4.019-2.1,5.815-5.848,5.835-10.18.1-22.092.034-44.184.074-66.276,0-1.666-.6-2.166-2.208-2.146-5.645.073-11.292.109-16.934-.015-1.956-.043-2.618.432-2.6,2.507.1,10.941.049,21.883.049,32.824" transform="translate(0 0)" fill="#008cff"/>
    <path id="Trazado_877" data-name="Trazado 877" d="M35.063,51.032c0-3.414-.038-6.829.011-10.242A5,5,0,0,1,40.29,35.5q10.242-.087,20.484-.005a5.05,5.05,0,0,1,5.294,5.256q.086,10.347,0,20.693a4.922,4.922,0,0,1-5.038,5.044q-10.45.085-20.9,0a4.861,4.861,0,0,1-5.033-5.01c-.078-3.482-.018-6.967-.018-10.45ZM60.822,40.785H40.338V61.309H60.822Z" transform="translate(-20.382 -20.62)" fill="#008cff"/>
    <path id="Trazado_878" data-name="Trazado 878" d="M67.8,132.306q-15.378,0-30.755,0c-.7,0-1.619.231-2.041-.12-.871-.726-1.968-1.741-2.03-2.7-.048-.741,1.253-1.688,2.118-2.318.421-.306,1.216-.119,1.843-.119q30.755-.006,61.51,0c3.161,0,4.4.717,4.453,2.558.057,1.886-1.311,2.7-4.552,2.7q-15.273,0-30.546,0" transform="translate(-19.174 -73.849)" fill="#008cff"/>
    <path id="Trazado_879" data-name="Trazado 879" d="M67.793,223.139H37.254a15.575,15.575,0,0,1-1.672-.018c-1.587-.172-2.635-.964-2.613-2.669s1.109-2.45,2.688-2.6c.414-.041.836-.013,1.254-.013q30.958,0,61.916,0a8.469,8.469,0,0,1,1.876.075,2.606,2.606,0,0,1-.074,5.168,9.529,9.529,0,0,1-1.877.059q-15.479,0-30.958,0" transform="translate(-19.172 -126.669)" fill="#008cff"/>
    <path id="Trazado_880" data-name="Trazado 880" d="M67.764,192.686q-15.587,0-31.173-.007c-.762,0-1.746.165-2.235-.231-.721-.583-1.586-1.673-1.48-2.418a4.507,4.507,0,0,1,1.929-2.383c.466-.344,1.349-.153,2.044-.153q30.859-.008,61.719,0c.349,0,.7-.011,1.046,0,2.094.093,3.327,1.113,3.208,2.766-.145,2.009-1.572,2.423-3.256,2.423h-31.8" transform="translate(-19.113 -109.003)" fill="#008cff"/>
    <path id="Trazado_881" data-name="Trazado 881" d="M68.047,157.363q15.369,0,30.739,0c.7,0,1.588-.233,2.047.106.848.626,1.987,1.594,1.991,2.424,0,.847-1.161,1.748-1.922,2.52-.213.216-.8.074-1.222.074q-31.681,0-63.361,0c-.418,0-1,.15-1.223-.065-.77-.754-1.8-1.548-2.014-2.49-.311-1.378.661-2.343,2.135-2.529a14.956,14.956,0,0,1,1.879-.041q15.474,0,30.949,0" transform="translate(-19.205 -91.467)" fill="#008cff"/>
    <path id="Trazado_882" data-name="Trazado 882" d="M68.205,253.4q-15.578,0-31.157,0c-.626,0-1.465.221-1.837-.094-.813-.69-1.914-1.66-1.911-2.512,0-.83,1.115-1.829,1.97-2.421.529-.366,1.487-.128,2.253-.129q30.635-.005,61.269,0a16.438,16.438,0,0,1,2.087.061,2.332,2.332,0,0,1,2.237,2.542,2.43,2.43,0,0,1-2.292,2.527,10.78,10.78,0,0,1-1.67.028H68.205" transform="translate(-19.365 -144.315)" fill="#008cff"/>
    <path id="Trazado_883" data-name="Trazado 883" d="M152.759,96.657c3.059,0,6.118-.016,9.177.006,2.045.014,3.38,1.052,3.316,2.638-.078,1.962-1.44,2.587-3.128,2.6-6.257.035-12.515.048-18.772,0-2.192-.018-3.274-1.046-3.18-2.721.092-1.656,1.214-2.5,3.408-2.513,3.059-.016,6.118,0,9.178,0" transform="translate(-81.511 -56.206)" fill="#008cff"/>
    <path id="Trazado_884" data-name="Trazado 884" d="M152.561,41.305c-3.132,0-6.266.055-9.4-.017-2.267-.052-3.708-1.571-2.923-3.222A3.694,3.694,0,0,1,142.86,36.2c6.469-.163,12.943-.115,19.416-.077,1.659.01,2.9.832,2.871,2.625-.028,1.817-1.373,2.5-2.98,2.533-3.2.064-6.4.019-9.6.02" transform="translate(-81.429 -20.987)" fill="#008cff"/>
    <path id="Trazado_885" data-name="Trazado 885" d="M152.548,66.489c3.06,0,6.12-.018,9.18.005,2.153.016,3.386.956,3.406,2.523.021,1.649-1.136,2.62-3.285,2.628-6.259.023-12.518,0-18.777.009-1.742,0-3.023-.588-3.132-2.541-.094-1.7,1.029-2.6,3.22-2.618,3.129-.023,6.259-.006,9.388-.006" transform="translate(-81.376 -38.662)" fill="#008cff"/>
  </g>
</svg>
