<svg height="127.704" viewBox="0 0 127.72 127.704" width="127.72" xmlns="http://www.w3.org/2000/svg"><path d="m560.409 83.446c-1.03-.657-1.757-1.1-2.46-1.572-7.613-5.139-10.083-14.212-5.936-22.459 6.035-12 11.467-24.3 17.174-36.472a10.181 10.181 0 0 1 13.956-5.011 23.2 23.2 0 0 1 2.942 1.757c1.767 1.178 2.228 2.694 1.285 4.027-.993 1.406-2.431 1.451-4.232.4a13.118 13.118 0 0 0 -4.028-1.734c-2.493-.471-3.979.5-5.059 2.791q-5.748 12.183-11.5 24.366c-.19.4-.352.818-.527 1.228 2.513-.455 4.941-1.1 7.406-1.3a22.274 22.274 0 0 1 17.8 6.094c.852.806 1.417.719 2.5.452 5.509-1.358 9.147-5.431 13.284-8.791a8.757 8.757 0 0 1 1.868-1.5 4.975 4.975 0 0 1 2.966-.593c3.866 1.224 7.649 2.708 11.472 4.07a3.78 3.78 0 0 0 1.638.288 25.623 25.623 0 0 1 11.542 1.446c-.19-.535-.3-.932-.467-1.3q-5.664-12.033-11.344-24.056c-1.569-3.322-4.307-4.25-7.606-2.547-.81.419-1.535 1-2.335 1.44a2.524 2.524 0 0 1 -3.6-.812 2.391 2.391 0 0 1 .531-3.392c4.207-3.294 8.6-4.922 13.925-1.727a8.947 8.947 0 0 1 3.293 3.552c5.361 11.07 10.589 22.2 15.8 33.347a3.992 3.992 0 0 0 2.507 2.309c8.163 2.853 16.3 5.772 24.449 8.675 3.257 1.161 3.715 3.156 1.286 5.609-1.574 1.589-3.165 3.162-4.747 4.742-3.427 3.423-4.89 10.817-3.04 15.367.1.019.231.089.3.05 1.375-.781 2.725-1 3.845.378 1.043 1.283.817 2.588-.689 4.1q-23.268 23.327-46.544 46.646a3.575 3.575 0 0 1 -4.368.8q-29.966-12.739-59.951-25.437c-3.945-1.671-7.293-3.995-9.476-7.836-3.569-6.278-.324-14.6 4.611-18.252 3.859-2.859 7.539-5.96 11.53-9.138m53.867 35.2 48.174-48.4c-5.585-1.992-11.39-4.064-17.2-6.128a2.131 2.131 0 0 0 -.511-.044 2.208 2.208 0 0 0 -.047.525c1.137 6.71-1.293 12.068-6.413 16.247-8.2 6.694-21.17 6.674-29.336-.05-5.156-4.246-7.583-9.675-6.306-16.436.23-1.218.685-2.394 1.032-3.581-4.552-1.974-6.341-2.372-9.187.655a6.907 6.907 0 0 1 -1.3 1.116 2 2 0 0 0 -.872 2.346c1 5.647-.828 10.438-4.754 14.412a21.013 21.013 0 0 1 -17.165 6.376c-3.188-.252-5.523.388-7.717 2.648-1.8 1.857-3.938 3.392-6.122 5.235l57.724 25.077m-2.628 4.835c-.634-.308-1.179-.6-1.743-.844q-11.419-4.987-22.843-9.963-17.013-7.423-34.036-14.821c-.581-.251-1.661-.387-1.972-.062-3.06 3.2-4.488 8.87-.691 12.317a22.164 22.164 0 0 0 6.049 3.815c12.938 5.584 25.94 11.021 38.918 16.515 4.793 2.029 9.579 4.076 14.639 6.23-1.012-4.717-.071-8.965 1.679-13.186m11.93-68.815a17.577 17.577 0 0 0 -11.931 4.386c-5.354 4.851-5.332 12.193 0 17.073 6.353 5.812 17.661 5.808 24-.01 5.388-4.948 5.346-12.33-.141-17.183a17.709 17.709 0 0 0 -11.925-4.266m-52.327 0a17.69 17.69 0 0 0 -12.018 4.384c-5.3 4.787-5.353 12.017-.159 16.924 6.372 6.02 17.984 6.008 24.34-.025 5.112-4.852 5.089-12.037-.1-16.814a17.57 17.57 0 0 0 -12.06-4.469m44.9 82.753a8.648 8.648 0 0 0 .759-.594q19.7-19.722 39.358-39.485a2.4 2.4 0 0 0 .281-1.873c-.364-1.723-.974-3.4-1.325-5.121a40.628 40.628 0 0 1 -.417-4.15c-.57.543-.986.925-1.386 1.324-11 10.981-21.972 21.992-33.026 32.919a16.852 16.852 0 0 0 -4.166 6.135c-1.339 3.577-2.013 7.127-.076 10.844m-13.477-82.91c1.313.516 2.362.974 3.445 1.326a1.533 1.533 0 0 0 1.21-.089c1.44-1.094 2.816-2.273 4.389-3.567-1.378-.5-2.631-.989-3.914-1.381a1.325 1.325 0 0 0 -1.033.264c-1.332 1.069-2.62 2.193-4.1 3.446" fill="#06f" transform="translate(-542.756 -16.813)"/></svg>