<svg height="128.738" viewBox="0 0 68.831 128.738" width="68.831" xmlns="http://www.w3.org/2000/svg"><g fill="#06f"><path d="m2468.949 153.159a12.149 12.149 0 0 1 -6.709-3.878 11.308 11.308 0 0 1 -2.533-7.439q-.025-53.039 0-106.078c0-6.773 4.653-11.338 11.386-11.339q23.129-.006 46.26 0a10.59 10.59 0 0 1 10.752 8.239 14.73 14.73 0 0 1 .378 3.726q.029 52.41.039 104.821c.01 6.412-3.636 10.783-9.058 11.825a.809.809 0 0 0 -.219.12zm55.031-105.036h-59.766v83.487h59.766zm-59.8-4.477h59.894c0-2.128.019-4.173-.006-6.218a18.538 18.538 0 0 0 -.183-3.746c-.7-3.137-3.26-4.958-6.794-4.967-6.953-.017-13.906-.005-20.86-.005q-12.566 0-25.132.005c-3.637.007-6.617 2.166-6.866 5.327s-.054 6.346-.054 9.6m-.062 92.453c0 1.939.093 3.743-.019 5.533-.265 4.272 2.752 7.321 7.212 7.253 4.309-.066 8.619-.013 12.929-.017.353 0 .706-.038 1.2-.066-2.8-4.282-2.747-8.478-.061-12.7zm38.649 0c2.825 4.315 2.7 8.512-.02 12.756 5.133 0 10.071.1 15-.035 3.271-.089 5.878-2.249 6.193-5.182a71.534 71.534 0 0 0 .061-7.534zm-2.313 6.337a6.357 6.357 0 1 0 -12.714-.015 6.357 6.357 0 1 0 12.714.015" transform="translate(-2459.692 -24.421)"/><path d="m2502.51 228.807h3.646c4.062.01 6.66 2.135 6.99 6.148a57.981 57.981 0 0 1 .007 9.163c-.292 3.8-2.514 5.936-6.344 6.148a76.917 76.917 0 0 1 -9.415-.1 6.112 6.112 0 0 1 -5.661-6.011q-.124-4.585 0-9.176a6.4 6.4 0 0 1 6.251-6.155c1.508-.039 3.018-.006 4.526-.006zm6.326 10.8v-3.765c0-.084 0-.168 0-.251-.04-1.591-.759-2.424-2.363-2.462q-4.014-.095-8.032 0a2.1 2.1 0 0 0 -2.37 2.216q-.13 4.2 0 8.406a2.034 2.034 0 0 0 2.251 2.166q4.14.044 8.283 0a2.052 2.052 0 0 0 2.225-2.294c.027-1.338.005-2.677.008-4.016" transform="translate(-2480.931 -160.16)"/><path d="m2579.165 228.809c1.383 0 2.766-.016 4.149 0a6.447 6.447 0 0 1 6.519 6.544c.032 2.639.012 5.28.007 7.92-.01 4.034-2.2 6.647-6.194 6.954a62.232 62.232 0 0 1 -9.04.016c-3.809-.265-6.008-2.442-6.234-6.257a74.545 74.545 0 0 1 .133-9.785 6.111 6.111 0 0 1 5.882-5.373c1.59-.063 3.185-.011 4.778-.011zm-6.457 10.691c0 1.3-.011 2.594 0 3.89.019 1.785.74 2.526 2.5 2.536q3.891.024 7.782 0c1.668-.011 2.475-.748 2.511-2.441q.084-3.952 0-7.906a2.19 2.19 0 0 0 -2.411-2.45q-4.015-.092-8.033 0c-1.6.039-2.32.879-2.343 2.478-.018 1.3 0 2.593 0 3.89" transform="translate(-2531.803 -160.161)"/><path d="m2502.452 173.51c-1.467 0-2.935.022-4.4 0a6.387 6.387 0 0 1 -6.317-6.21q-.108-4.522 0-9.049a6.17 6.17 0 0 1 5.727-6.087 88.99 88.99 0 0 1 9.293-.089c3.845.179 6.159 2.36 6.409 6.213a71.123 71.123 0 0 1 -.114 9.783 6.109 6.109 0 0 1 -6.073 5.437c-1.508.032-3.017.005-4.525.006m6.39-10.63c0-1.339.014-2.678 0-4.016-.023-1.693-.767-2.45-2.45-2.462q-3.891-.028-7.782 0c-1.641.008-2.5.692-2.541 2.279q-.117 4.138.007 8.281a2.117 2.117 0 0 0 2.348 2.245c2.718.058 5.44.068 8.158-.006 1.522-.041 2.236-.894 2.261-2.429.021-1.3 0-2.594 0-3.89" transform="translate(-2480.937 -109.145)"/><path d="m2578.99 173.627q-1.823 0-3.646 0c-4.1-.006-6.727-2.2-6.983-6.289a73.589 73.589 0 0 1 .133-9.785 5.856 5.856 0 0 1 5.515-5.272c3.342-.151 6.7-.168 10.042-.005a6.105 6.105 0 0 1 5.741 5.932c.1 3.139.11 6.287 0 9.426a6.349 6.349 0 0 1 -6.272 5.985c-1.508.027-3.017 0-4.526.006m-6.29-10.8c0 1.339-.015 2.678 0 4.016.022 1.6.752 2.446 2.34 2.483 2.676.062 5.356.055 8.033 0a2.116 2.116 0 0 0 2.386-2.2q.135-4.2.005-8.406a2.077 2.077 0 0 0 -2.358-2.2q-4.016-.035-8.033 0c-1.6.014-2.345.789-2.371 2.413-.021 1.3 0 2.594 0 3.89" transform="translate(-2531.793 -109.26)"/><path d="m2489.633 111.755c0 1.395.019 2.607-.005 3.818-.03 1.588-.845 2.586-2.117 2.646a2.287 2.287 0 0 1 -2.265-2.488c-.062-1.925-.065-3.855 0-5.78.06-1.745.871-2.465 2.623-2.478 1.926-.014 3.854-.021 5.781 0a2.145 2.145 0 1 1 .011 4.273c-1.291.021-2.582 0-4.029 0" transform="translate(-2476.632 -79.572)"/><path d="m2534.411 111.742c-.752 0-1.507.038-2.256-.008a2.2 2.2 0 0 1 -2.064-2.13 2.16 2.16 0 0 1 2.07-2.112c1.5-.052 3.01-.054 4.511 0a2.117 2.117 0 0 1 2.051 2.118 2.149 2.149 0 0 1 -2.056 2.123c-.75.046-1.5.009-2.256.009" transform="translate(-2506.447 -79.566)"/><path d="m19.427 10.842h21.429v4.126h-21.429z"/><path d="m45.186 10.796h4.231v4.187h-4.231z"/></g></svg>