<svg id="Grupo_245" data-name="Grupo 245" xmlns="http://www.w3.org/2000/svg" width="74.396" height="125.584" viewBox="0 0 74.396 125.584">
  <path id="Trazado_833" data-name="Trazado 833" d="M1360.212,0c.371.139.737.3,1.115.414A10.016,10.016,0,0,1,1368.546,10q.038,30.783.018,61.565,0,21.83-.008,43.66a10.055,10.055,0,0,1-8.43,10.222,9.507,9.507,0,0,1-1.828.13q-26.924.01-53.849,0a10.058,10.058,0,0,1-10.238-10c-.054-2.452-.019-4.905-.019-7.358q0-48.627-.02-97.254c-.005-4.635,1.85-8.018,6.015-10.078A24.352,24.352,0,0,1,1302.561,0Zm-3.341,79.941c5.366-.032,6.651,2.783,6.449,7.029-.146,3.059-.022,6.13-.037,9.2,0,.711.078,1.243,1,.9v-72.5h-65.843V97.1H1328.7c-.256-.507-.441-.906-.655-1.289q-2.715-4.862-5.444-9.718c-.552-.978-.749-1.982.118-2.81,1.768-1.687,3.818-2.89,6.371-2.531a23.563,23.563,0,0,1,3.554,1.061V77.751h-1.384c-3.884,0-7.768.032-11.651-.012a7.831,7.831,0,0,1-7.623-8.432q1.443-12.217,2.843-24.439c.184-1.585.854-2.2,2.485-2.218,1.175-.014,2.35,0,3.674,0-.226-3.135.248-5.981,2.283-8.359a11.007,11.007,0,0,1,15.1-1.588c3.219,2.5,4.26,5.927,3.914,9.947,1.154,0,2.128,0,3.1,0,1.888.012,2.561.619,2.766,2.5.124,1.136.216,2.275.348,3.41q1.175,10.091,2.358,20.182a7.725,7.725,0,0,1-1.988,6.452,5.141,5.141,0,0,0-.393.678,6.878,6.878,0,0,0,1.643.285c3.9-.371,5.786.654,6.754,3.784m7.508-59.762c0-3.536.1-6.929-.028-10.313a5.977,5.977,0,0,0-6.083-5.689q-26.914-.029-53.828,0a6.035,6.035,0,0,0-6.053,6.1c-.023,2.37-.005,4.741-.006,7.111v2.786Zm-65.932,81.275c-.027.487-.063.845-.063,1.2,0,4.25-.014,8.5,0,12.75a6.067,6.067,0,0,0,6.269,6.253q26.73.009,53.459,0a6.081,6.081,0,0,0,6.269-6.264c.018-4.29.006-8.581,0-12.872,0-.319-.04-.638-.06-.938a1.8,1.8,0,0,0-2.47,1.045,9.939,9.939,0,0,1-8.693,5.712c-4.993.161-10.012.425-15-.278,1.515,5.593-.409,9.651-5.12,10.786a7.532,7.532,0,0,1-9.068-5.973,7.3,7.3,0,0,1,1.343-5.8,7.747,7.747,0,0,1,7.155-3.069c-.525-2.008-1.651-2.641-3.716-2.613-9.6.133-19.208.059-28.813.059Zm22.516-54.543h-2.137c-.32,2.776-.636,5.483-.945,8.192-.54,4.74-1.025,9.488-1.631,14.22a3.747,3.747,0,0,0,4.005,4.271c3.473-.032,6.946-.008,10.419-.008h2.05c0-2.866-.022-5.593.007-8.32a4.359,4.359,0,0,1,3.235-4.394,9.387,9.387,0,0,1,3.968-.073c2.269.468,3.529,2.337,3.549,4.8.021,2.56,0,5.121,0,7.694a3.432,3.432,0,0,0,3.168-4.167c-.584-4.735-1.1-9.478-1.653-14.217-.31-2.663-.63-5.325-.948-8.006H1342.3c0,1.687.006,3.313,0,4.938-.008,1.544-.8,2.457-2.1,2.445s-2.055-.923-2.062-2.487c-.007-1.62,0-3.24,0-4.871h-13c0,1.717.009,3.346,0,4.975-.011,1.478-.777,2.359-2.038,2.382-1.307.023-2.118-.89-2.128-2.424-.011-1.626,0-3.253,0-4.946m29.176,33.549c0,1.66.01,3.205,0,4.75-.012,1.512-.843,2.508-2.084,2.531s-2.093-.964-2.109-2.481c-.019-1.8-.063-3.6.016-5.392.046-1.036-.468-1.1-1.266-1.092s-1.437,0-1.365,1.135a38.293,38.293,0,0,1-.013,4.165,1.987,1.987,0,0,1-1.914,2.007,2.167,2.167,0,0,1-2.264-2.448c0-3.8.021-7.6.037-11.4.009-2.125.012-4.249.044-6.374.011-.745-.216-1.1-1.045-1.133-1.063-.044-1.3.406-1.293,1.381.032,7.028.01,14.055.023,21.083a2.121,2.121,0,0,1-1.372,2.231,2.148,2.148,0,0,1-2.519-.754c-.789-.937-1.58-1.875-2.412-2.774a2.565,2.565,0,0,0-3.482-.6c0,.08-.019.175.016.237,2.9,5.2,5.753,10.427,8.728,15.584a6.3,6.3,0,0,0,5.647,3.112q5.392.1,10.788.005a6.793,6.793,0,0,0,6.707-6.74c.041-4,0-8.008.028-12.012.005-.8-.187-1.2-1.081-1.216-.828-.014-.963.342-1.09,1.072a3.243,3.243,0,0,1-.97,1.95,2.143,2.143,0,0,1-1.993.139,3.212,3.212,0,0,1-1.2-2.055,45.1,45.1,0,0,1-.055-4.91ZM1325.21,42.552h12.852c.709-5.489-3.019-7.934-6.417-7.936-3.365,0-7.132,2.4-6.435,7.936m6.18,72.25a3.284,3.284,0,1,0-3.312-3.233,3.352,3.352,0,0,0,3.312,3.233" transform="translate(-1294.173 0)" fill="#06f"/>
  <path id="Trazado_834" data-name="Trazado 834" d="M1406.163,36.763c2.861,0,5.722-.007,8.583,0a1.888,1.888,0,0,1,2.11,1.639,3.87,3.87,0,0,1-.887,2.2c-.205.295-.891.351-1.359.353q-8.522.033-17.044.005a2.1,2.1,0,0,1-2.359-2.091,2.174,2.174,0,0,1,2.374-2.1c2.861-.02,5.722-.006,8.583-.005" transform="translate(-1368.888 -27.183)" fill="#06f"/>
</svg>
