<svg height="125.354" viewBox="0 0 125.393 125.354" width="125.393" xmlns="http://www.w3.org/2000/svg"><g fill="#06f"><path d="m125.394 199.393a2.8 2.8 0 0 1 -2.61 1.206q-60.055-.029-120.109-.017c-2.14 0-2.675-.532-2.675-2.661q0-5.692 0-11.384a4.734 4.734 0 0 1 4.966-5.007c2.887-.013 5.776 0 8.8 0v-1.543q0-14.75 0-29.5c0-3.2 1.244-4.435 4.45-4.435h26.9c0-1.962-.007-3.788 0-5.613a5.85 5.85 0 0 1 .114-1.331 1.684 1.684 0 0 1 1.757-1.4 1.662 1.662 0 0 1 1.768 1.378 7.008 7.008 0 0 1 .129 1.574q.009 19.586 0 39.172v1.629h27.496v-62.338h-27.473v1.286c0 3.509.007 7.018-.009 10.528 0 .482.049 1.106-.216 1.413a2.762 2.762 0 0 1 -1.673 1.087c-.568 0-1.187-.631-1.673-1.1-.211-.2-.2-.693-.2-1.052-.012-4.08-.036-8.161 0-12.241a3.5 3.5 0 0 1 3.848-3.795q13.712-.034 27.426 0c2.477.007 3.82 1.41 3.838 3.933.027 3.754.007 7.508.008 11.262v1.539h1.5q12.61 0 25.222 0c3.492 0 4.634 1.133 4.634 4.593q0 21.606 0 43.212v1.737h4.692c1.02 0 2.047.072 3.06-.014a5.355 5.355 0 0 1 6.027 3.678zm-45.037-63.63v45.763h9.751c1.963 0 2.883.595 2.87 1.855s-.906 1.818-2.9 1.818q-41.445 0-82.891-.005c-3.755 0-3.543-.172-3.524 3.514.015 2.679 0 5.359 0 8.079h118.06c0-3.468.006-6.85 0-10.232a1.233 1.233 0 0 0 -1.384-1.352c-1.02-.011-2.041 0-3.061 0q-9 0-18 0c-1.347 0-2.164-.684-2.2-1.773a1.881 1.881 0 0 1 2.091-1.889c2.847-.016 5.693-.005 8.6-.005v-45.772zm-62.74 45.691h27.423v-31.554h-27.423z" transform="translate(-.001 -75.245)"/><path d="m147.345 0a5.265 5.265 0 0 1 2.747 2.917c.863 1.932 1.91 3.781 2.777 5.711a1.844 1.844 0 0 0 1.659 1.172c2.341.307 4.674.667 7.013.987a3.333 3.333 0 0 1 2.989 2.334 3.22 3.22 0 0 1 -1.022 3.534c-1.747 1.714-3.489 3.434-5.268 5.113a1.658 1.658 0 0 0 -.535 1.723c.48 2.476.906 4.964 1.309 7.454a3.314 3.314 0 0 1 -4.807 3.447c-2.244-1.157-4.483-2.323-6.7-3.534a1.67 1.67 0 0 0 -1.805.006c-2.1 1.156-4.245 2.248-6.364 3.378a3.291 3.291 0 0 1 -3.791-.1 3.362 3.362 0 0 1 -1.253-3.685c.483-2.351.869-4.723 1.2-7.1a2.006 2.006 0 0 0 -.468-1.477c-1.7-1.759-3.476-3.444-5.234-5.146a3.276 3.276 0 0 1 -1.105-3.62 3.384 3.384 0 0 1 3.113-2.342c2.383-.3 4.764-.629 7.127-1.054a2.167 2.167 0 0 0 1.314-1.006c1.029-1.9 2-3.826 2.883-5.794a5.24 5.24 0 0 1 2.752-2.918zm-14.232 14.342c1.477 1.588 2.783 3.232 4.334 4.6a4.957 4.957 0 0 1 1.689 5.442c-.5 2.012-.72 4.1-1.095 6.336 2.334-1.226 4.476-2.313 6.578-3.47a3.83 3.83 0 0 1 3.945-.025c2.144 1.158 4.312 2.272 6.617 3.481-.424-2.528-.749-4.9-1.241-7.244a4.064 4.064 0 0 1 1.377-4.04c1.652-1.624 3.2-3.357 4.81-5.066-1.351-.2-2.825-.483-4.311-.642-4.813-.515-4.814-.5-6.957-4.847-.708-1.438-1.417-2.874-2.248-4.559-1.084 2.2-2.134 4.079-2.953 6.055a4.766 4.766 0 0 1 -4.5 3.123c-2.058.164-4.1.573-6.042.858" transform="translate(-83.916)"/><path d="m254.185 84.477c.014 1.52-1.1 2.419-2.318 2.023a16.516 16.516 0 0 1 -2.882-1.287 1.648 1.648 0 0 1 -.744-2.113 1.531 1.531 0 0 1 1.857-1.2 17.973 17.973 0 0 1 3.515 1.585c.347.193.465.8.572 1" transform="translate(-162.021 -53.438)"/><path d="m102.467 83.7c-.1 1.71-1.626 1.833-2.72 2.419-.887.475-1.81.8-2.718.029a1.8 1.8 0 0 1 .237-2.917 14.945 14.945 0 0 1 2.873-1.311 1.8 1.8 0 0 1 2.328 1.779" transform="translate(-62.945 -53.434)"/><path d="m89.863 44.9c.447 0 .9-.037 1.34.007a1.835 1.835 0 0 1 .028 3.667 15.37 15.37 0 0 1 -2.8.008 1.785 1.785 0 0 1 -1.739-1.957 1.728 1.728 0 0 1 1.83-1.729c.445-.031.894 0 1.34 0z" transform="translate(-56.606 -29.308)"/><path d="m260.431 44.935a13.938 13.938 0 0 1 1.461.01 1.825 1.825 0 0 1 .1 3.623 12.8 12.8 0 0 1 -3.157-.006 1.823 1.823 0 0 1 .138-3.621c.484-.042.974-.007 1.461-.006" transform="translate(-167.999 -29.332)"/><path d="m254.187 6.829c-.162 1.7-1.814 1.758-2.955 2.4a2.045 2.045 0 0 1 -2.5-.092 1.826 1.826 0 0 1 .378-2.983 16.6 16.6 0 0 1 2.539-1.165 1.839 1.839 0 0 1 2.539 1.841" transform="translate(-162.019 -3.172)"/><path d="m102.474 7.478c-.048 1.556-1.159 2.387-2.408 1.982a15.649 15.649 0 0 1 -2.766-1.25 1.686 1.686 0 0 1 -.759-2.21 1.581 1.581 0 0 1 2.03-1.109 14.843 14.843 0 0 1 3.187 1.447c.41.245.576.9.716 1.138" transform="translate(-62.949 -3.141)"/></g></svg>