<svg height="125.329" viewBox="0 0 105.746 125.329" width="105.746" xmlns="http://www.w3.org/2000/svg"><g fill="#06f"><path d="m444.175 0c2.95.566 5.948.951 8.839 1.732a41.179 41.179 0 0 1 18.962 11.338 41.738 41.738 0 0 1 11.272 21.173 42.549 42.549 0 0 1 -4.5 29.682c-.741 1.354-1.484 2.706-2.187 3.988 16.524 2.644 26.405 11.733 27.223 28.833.547 11.439-7.115 22.092-17.592 26.481a29.042 29.042 0 0 1 -34.529-10.142c-.207.312-.415.584-.58.88q-2.133 3.847-4.251 7.7a6.229 6.229 0 0 1 -11.324.056q-16.079-29.089-32.149-58.182a40.284 40.284 0 0 1 -4.859-25.739c2.583-17.452 12.317-29.344 28.87-35.461 3.016-1.114 6.326-1.432 9.5-2.114.393-.084.79-.152 1.185-.228zm-3.087 116.559a2.411 2.411 0 0 0 .289-.331c2.013-3.633 4.044-7.258 6-10.92a2.5 2.5 0 0 0 .083-1.617 26.882 26.882 0 0 1 -.492-11.28c2.094-11.293 8.6-18.9 19.391-22.86a3.082 3.082 0 0 0 1.485-1.238c1.539-2.638 2.987-5.329 4.46-8.006a34.808 34.808 0 0 0 4.416-15.481 35.725 35.725 0 0 0 -7.429-23.626c-8.112-10.77-23.063-16.15-36.183-12.887-14.917 3.71-25.543 15.536-27.35 30.61a35.327 35.327 0 0 0 4.442 21.777q10.99 19.824 21.944 39.667c2.975 5.379 5.946 10.761 8.944 16.188m55.36-19.744a21.228 21.228 0 1 0 -21.278 21.21 21.178 21.178 0 0 0 21.278-21.21" transform="translate(-398.061)"/><path d="m504.816 85.458a19.685 19.685 0 1 1 -19.648-19.749 19.728 19.728 0 0 1 19.648 19.749m-20.216-12.31c-7.365.6-12.217 6.305-11.639 13.693.476 6.088 6.682 11.319 12.794 10.849a12.284 12.284 0 0 0 -1.155-24.542" transform="translate(-442.063 -42.907)"/><path d="m592.8 261.457c3.333-3.34 6.422-6.525 9.631-9.584a5.714 5.714 0 0 1 2.85-1.371 3.1 3.1 0 0 1 3.29 1.848 3.5 3.5 0 0 1 -.255 3.909 7.005 7.005 0 0 1 -.805.915q-5.743 5.755-11.5 11.5c-2.1 2.094-4.072 2.106-6.148.048q-2.735-2.712-5.446-5.447c-1.727-1.748-1.865-4.011-.365-5.537 1.573-1.6 3.776-1.479 5.607.36 1.058 1.063 2.05 2.192 3.137 3.361" transform="translate(-518.839 -163.547)"/></g></svg>