<svg height="120.461" viewBox="0 0 138.957 120.461" width="138.957" xmlns="http://www.w3.org/2000/svg"><g fill="#06f"><path d="m2077.022 128.912a2.889 2.889 0 0 0 -.253.464 7.409 7.409 0 0 1 -6.991 5.433c-.315.022-.632.018-.949.018q-61.257 0-122.515-.016a11.244 11.244 0 0 1 -3.073-.393 7.15 7.15 0 0 1 -5.172-6.992q-.008-44.237 0-88.475a8.326 8.326 0 0 1 8.273-8.3c1.984-.019 3.969 0 6.087 0 .03-.5.076-.931.078-1.362.007-2.714-.019-5.428.01-8.142a6.393 6.393 0 0 1 6.615-6.717 31.4 31.4 0 0 1 4.872.131 6.2 6.2 0 0 1 5.5 6.352c.039 2.759.009 5.518.009 8.277v1.388h14.087c0-2.055 0-4.076 0-6.1 0-1.221-.024-2.443.009-3.664.092-3.431 2.135-5.9 5.537-6.263a26.794 26.794 0 0 1 6.343.112 5.945 5.945 0 0 1 4.985 5.908c.035 3.3.008 6.592.008 9.981h14.118c0-2.937.155-5.871-.036-8.783a6.619 6.619 0 0 1 7.339-7.361c1.442.077 2.907-.03 4.324.187a5.956 5.956 0 0 1 5.23 5.97c.08 2.8.027 5.608.032 8.413v1.568h14.08v-1.246c0-2.759-.019-5.519.006-8.277a6.252 6.252 0 0 1 5.789-6.516 25.85 25.85 0 0 1 5.415 0 6.242 6.242 0 0 1 5.779 6.529c.044 2.668.01 5.337.01 8.006v1.606h5.516c4.489.006 7.343 2.123 8.71 6.454a1.429 1.429 0 0 0 .222.331zm-3.8-73.514h-131.359v1.579q0 34.672 0 69.344c0 3.378 1.18 4.564 4.557 4.564q61.124 0 122.248 0c3.375 0 4.556-1.189 4.556-4.568q0-34.672 0-69.344zm-131.347-4.141h131.347c0-3.7 0-7.315 0-10.924 0-4.246-1.649-5.886-5.921-5.886h-119.501c-.5 0-1-.02-1.491.023a4.542 4.542 0 0 0 -4.4 4.353c-.113 4.106-.031 8.216-.031 12.434m54.771-20.644c0-3.4.057-6.691-.027-9.978a2.262 2.262 0 0 0 -2.406-2.253c-1.445-.047-2.895-.05-4.339 0a2.3 2.3 0 0 0 -2.424 2.5c-.031 1.537-.008 3.075-.008 4.612v5.123zm30.985-.037c0-3.386.035-6.679-.018-9.971a2.2 2.2 0 0 0 -2.277-2.213c-1.49-.058-2.984-.055-4.474-.009a2.261 2.261 0 0 0 -2.4 2.255c-.082 3.287-.026 6.577-.026 9.937zm30.949.006c0-3.489.068-6.914-.038-10.334a1.975 1.975 0 0 0 -2.143-1.856c-1.4-.047-2.8-.049-4.205-.024-1.842.033-2.655.814-2.692 2.644-.043 2.08-.013 4.161-.014 6.242v3.328zm-93.047 0c0-3.445.056-6.824-.029-10.2a2.012 2.012 0 0 0 -2.168-1.988c-1.445-.054-2.894-.056-4.34-.019-1.724.044-2.513.872-2.535 2.642-.025 1.945-.007 3.89-.008 5.835q0 1.864 0 3.73z" transform="translate(-1938.065 -14.366)"/><path d="m2067.322 163.142c-1.851 0-3.7.041-5.554-.009a4.034 4.034 0 0 1 -4.28-4.242q-.1-4.13 0-8.264a4.115 4.115 0 0 1 4.384-4.311c3.7-.049 7.406-.055 11.108 0a4.2 4.2 0 0 1 4.38 4.481c.026 2.664.033 5.329 0 7.993a4.1 4.1 0 0 1 -4.21 4.336c-1.939.065-3.883.013-5.824.014m6.026-12.784h-11.88v8.874h11.88z" transform="translate(-2014.165 -98.457)"/><path d="m2157 163.153c-1.852 0-3.7.033-5.554-.009a4.173 4.173 0 0 1 -4.422-4.545q-.025-3.861 0-7.723a4.22 4.22 0 0 1 4.446-4.555c3.657-.05 7.315-.043 10.972 0a4.137 4.137 0 0 1 4.458 4.377q.086 4.063 0 8.129c-.059 2.7-1.643 4.226-4.347 4.326-.09 0-.18 0-.271 0zm-5.945-3.949h11.893v-8.884h-11.893z" transform="translate(-2071.266 -98.463)"/><path d="m2067.353 270.253c1.9 0 3.793-.03 5.689.008a4.11 4.11 0 0 1 4.311 4.363q.047 4 0 7.993a4.177 4.177 0 0 1 -4.281 4.444q-5.687.116-11.377 0a4.061 4.061 0 0 1 -4.209-4.207q-.109-4.2 0-8.4a4.012 4.012 0 0 1 4.314-4.2c1.85-.033 3.7-.006 5.553-.006m-5.919 12.781h11.891v-8.886h-11.891z" transform="translate(-2014.159 -177.482)"/><path d="m1977.954 270.253c1.806 0 3.612-.02 5.418 0 2.845.038 4.43 1.641 4.44 4.465q.012 3.929 0 7.858c-.009 2.644-1.587 4.419-4.2 4.477q-5.686.127-11.378 0a4.106 4.106 0 0 1 -4.225-4.445c-.007-2.71-.012-5.42 0-8.129a3.976 3.976 0 0 1 4.12-4.219c1.94-.05 3.883-.01 5.825-.01zm-6.063 12.767h12v-8.875h-12z" transform="translate(-1957.148 -177.483)"/><path d="m1977.908 163.127c-1.851 0-3.7.036-5.554-.008a4.052 4.052 0 0 1 -4.344-4.426q-.01-4 0-7.994a4.072 4.072 0 0 1 4.138-4.385q5.755-.129 11.515 0a4.065 4.065 0 0 1 4.15 4.381q.019 4.065 0 8.13a4 4 0 0 1 -4.08 4.276c-1.939.074-3.883.015-5.825.015zm6.02-12.8h-12.028v8.851h12.026z" transform="translate(-1957.151 -98.439)"/><path d="m2246.634 163.133c-1.806 0-3.613.03-5.419-.007-2.849-.058-4.426-1.669-4.434-4.485q-.01-3.929 0-7.859c.009-2.644 1.593-4.414 4.2-4.468q5.687-.119 11.379 0a4.089 4.089 0 0 1 4.22 4.444c.008 2.71.012 5.42 0 8.129a3.96 3.96 0 0 1 -3.99 4.213c-1.983.082-3.973.017-5.96.017zm-5.965-3.975h12.022v-8.846h-12.021z" transform="translate(-2128.488 -98.444)"/><path d="m2067.375 225.1c-1.9 0-3.795.02-5.692-.005a3.974 3.974 0 0 1 -4.163-3.922c-.108-2.977-.107-5.964 0-8.942a3.968 3.968 0 0 1 4.155-3.933q5.691-.045 11.383 0a4.121 4.121 0 0 1 4.288 4.128q.1 4.267 0 8.538a4.121 4.121 0 0 1 -4.278 4.134c-1.9.021-3.794 0-5.692 0m-5.942-3.829c3.83 0 7.485-.014 11.14.012.781.005.879-.409.876-1.025-.011-2.349-.039-4.7.013-7.048.02-.948-.4-1.115-1.224-1.107-3.3.034-6.6.011-9.894.021a6.239 6.239 0 0 0 -.911.135z" transform="translate(-2014.163 -137.982)"/><path d="m2156.891 225.1c-1.853 0-3.7.013-5.557 0a4.118 4.118 0 0 1 -4.336-4.072q-.119-4.334 0-8.673a4.1 4.1 0 0 1 4.219-4.054q5.691-.045 11.384 0a4 4 0 0 1 4.226 4.007c.1 2.933.1 5.875 0 8.807a4 4 0 0 1 -4.244 3.985c-1.9.02-3.794 0-5.692 0m6.015-12.981c-3.822 0-7.517-.02-11.21.041-.271 0-.755.588-.764.913-.066 2.393-.019 4.789-.046 7.183-.009.745.234 1.056 1.017 1.028 1.354-.049 2.71-.013 4.065-.013h6.938z" transform="translate(-2071.219 -137.982)"/><path d="m1977.859 225.1c-1.9 0-3.794.021-5.691-.005a4.043 4.043 0 0 1 -4.164-4.2q-.025-4.2 0-8.4a4.038 4.038 0 0 1 4.173-4.194q5.691-.047 11.382 0a4.076 4.076 0 0 1 4.244 4.273q.027 4.133 0 8.267a4.075 4.075 0 0 1 -4.253 4.26c-1.9.02-3.794 0-5.691 0m.034-12.984c-1.669 0-3.338.03-5.006-.013-.8-.021-1.123.227-1.106 1.076q.07 3.517 0 7.036c-.018.856.313 1.076 1.11 1.069q5.005-.046 10.011 0c.8.007 1.129-.219 1.113-1.072q-.069-3.517 0-7.036c.017-.854-.319-1.092-1.115-1.073-1.668.041-3.337.012-5.006.012" transform="translate(-1957.142 -137.98)"/><path d="m2246.618 225.1c-1.852 0-3.7.014-5.556 0a4.072 4.072 0 0 1 -4.29-4.222q-.031-4.2 0-8.4a4.058 4.058 0 0 1 4.2-4.175q5.691-.045 11.382 0a4.054 4.054 0 0 1 4.214 4.292q.019 4.133 0 8.267a4.059 4.059 0 0 1 -4.262 4.241c-1.9.018-3.794 0-5.691 0m.163-12.984c-1.714 0-3.427.019-5.141-.009-.7-.012-1.087.152-1.075.97.037 2.435-.017 4.872.052 7.306a1.211 1.211 0 0 0 .823.848c3.471.06 6.945.028 10.417.048.708 0 .94-.276.932-.965-.027-2.39-.043-4.782.007-7.171.019-.893-.387-1.053-1.144-1.038-1.623.033-3.247.01-4.871.01" transform="translate(-2128.476 -137.98)"/><path d="m2244.66 283.008c2.358-3.084 4.6-6.019 6.846-8.953.357-.467.686-.961 1.083-1.391a1.79 1.79 0 0 1 2.651-.307 1.757 1.757 0 0 1 .381 2.635c-1.365 1.858-2.783 3.676-4.18 5.51-1.616 2.122-3.223 4.252-4.854 6.363-1.287 1.666-2.506 1.649-3.824-.018-1.739-2.2-3.487-4.39-5.213-6.6-.985-1.259-.983-2.34-.047-3.1s2.13-.467 3.119.777l4.038 5.08" transform="translate(-2128.507 -178.54)"/><path d="m2155 283.011c2.448-3.2 4.8-6.272 7.156-9.345a12.051 12.051 0 0 1 .846-1.055 1.757 1.757 0 0 1 2.544-.277 1.845 1.845 0 0 1 .448 2.641 5.283 5.283 0 0 1 -.4.544q-4.27 5.6-8.543 11.192c-1.443 1.882-2.557 1.871-4.065-.02-1.744-2.187-3.488-4.376-5.21-6.58-.91-1.166-.853-2.219.1-2.973.884-.7 2.048-.486 2.938.608 1.388 1.707 2.741 3.442 4.189 5.266" transform="translate(-2071.34 -178.546)"/></g></svg>