<svg height="119.918" viewBox="0 0 107.825 119.918" width="107.825" xmlns="http://www.w3.org/2000/svg"><g fill="#06f"><path d="m1058.2 50.345c1.068-1.154 2.113-2.372 3.251-3.495 3.513-3.466 8.643-3.585 11.912-.32 3.463 3.459 3.461 8.4 0 12.043q-1.6 1.681-3.2 3.366a50.42 50.42 0 0 1 9.1 21.162c2.354 13.87-.463 26.6-8.721 37.964-9.07 12.476-21.46 19.329-36.845 20.4-15.661 1.09-28.885-4.36-39.766-15.61-1.7-1.755-1.783-3.586-.284-4.922 1.326-1.181 2.825-1.025 4.455.383 2.68 2.313 5.237 4.809 8.12 6.84a39.8 39.8 0 0 0 19.145 6.984c14.076 1.45 26.195-2.895 36.114-12.868a41.668 41.668 0 0 0 12.086-25.325 43.615 43.615 0 0 0 -6.912-29.152c-.864-1.35-1.916-2.58-2.853-3.886-1.293-1.8-1.228-3.136.3-4.757s3.088-3.188 4.67-4.744a2.241 2.241 0 0 0 .368-3.254c-.731-.953-2.366-.843-3.406.172-1.547 1.512-3.037 3.083-4.567 4.612-1.9 1.9-3.092 2.072-5.262.549a43.729 43.729 0 0 0 -16.921-7.411c-1.086-.211-2.185-.358-3.279-.526-2.1-.324-3.177-1.278-3.248-3.331-.111-3.214-.109-6.437 0-9.651.069-2.1 1.328-3.2 3.421-3.292.831-.036 1.664 0 2.5-.028a2.147 2.147 0 0 0 .115-4.291 19.865 19.865 0 0 0 -2.825-.051c-4.327 0-8.657-.08-12.979.067a4.013 4.013 0 0 0 -2.488 1.476c-.286.334.09 1.463.459 2.046a2.419 2.419 0 0 0 1.553.729 18.3 18.3 0 0 0 2.325.048c2.353.078 3.5 1.106 3.57 3.458.089 3.05.076 6.1.009 9.155-.05 2.275-1.02 3.334-3.275 3.661a44.012 44.012 0 0 0 -21.238 8.8c-1.612 1.261-3.026 2.773-4.62 4.061-2.052 1.657-4.795.757-5.072-1.73a3.88 3.88 0 0 1 .979-2.8 48.84 48.84 0 0 1 24.471-13.658c.838-.186 2.173-.315 2.357-.811a7.693 7.693 0 0 0 .1-3.442c-.036-.3-.792-.615-1.266-.752a8.416 8.416 0 0 1 -6.212-7.415 8.208 8.208 0 0 1 4.491-8.077 10.328 10.328 0 0 1 4.15-.964c4.879-.113 9.763-.094 14.644-.028a8.371 8.371 0 0 1 4.469 15.593 5.019 5.019 0 0 1 -1.821.77c-1.332.153-1.7.781-1.645 2.079.1 2.448.016 2.482 2.368 2.979a49.553 49.553 0 0 1 15.778 6.415c.373.229.771.418 1.43.772" transform="translate(-972.243 -21.683)"/><path d="m1046.708 177.765a36.758 36.758 0 0 1 -25.919-10.288c-1.719-1.629-1.914-3.337-.555-4.777 1.269-1.345 3.065-1.349 4.7.216a30.789 30.789 0 0 0 16.048 8.2c16.318 3.009 32.694-8.405 35.433-24.687a30.552 30.552 0 0 0 -24.856-35.554c-9.705-1.7-18.335.886-25.756 7.4-.375.33-.727.687-1.116 1-1.609 1.292-3.366 1.233-4.587-.139a3.025 3.025 0 0 1 .409-4.437 51.887 51.887 0 0 1 6.271-4.914 36.764 36.764 0 1 1 19.927 67.979" transform="translate(-988.161 -70.827)"/><path d="m1079.546 163.419c2.452 6.292.675 11.77-4.371 14.429a10.453 10.453 0 0 1 -14.587-13.009 10.174 10.174 0 0 1 9.984-6.6c1.249.055 2.476.508 3.727.645a2.283 2.283 0 0 0 1.635-.387c2.373-2.25 4.653-4.6 6.995-6.881a3.045 3.045 0 0 1 3.939-.611 2.729 2.729 0 0 1 1.4 3.248 5.005 5.005 0 0 1 -1.309 2.055c-2.442 2.416-4.952 4.763-7.412 7.112m-9.056.951a4.209 4.209 0 1 0 4.062 4.424 4.364 4.364 0 0 0 -4.062-4.424" transform="translate(-1012.334 -98.43)"/><path d="m956.459 148.289c3.265 0 6.53-.013 9.8 0 2.356.012 3.891 1.285 3.866 3.16-.024 1.823-1.513 3.076-3.8 3.083-6.7.021-13.393.01-20.09 0-1.487 0-2.958-.463-3.338-1.929a4.4 4.4 0 0 1 .632-3.3 4 4 0 0 1 2.8-.979c3.372-.113 6.751-.044 10.127-.044" transform="translate(-942.586 -97.08)"/><path d="m974.6 185.35c3.377 0 6.752.012 10.128 0a3.214 3.214 0 0 1 3.341 2.206c.774 2.069-.837 4.008-3.463 4.037-4.427.051-8.855.015-13.283.015-2.435 0-4.872.052-7.3-.026a3.216 3.216 0 0 1 -3.133-2.046 2.678 2.678 0 0 1 .851-3.288 4.931 4.931 0 0 1 2.736-.856c3.374-.1 6.751-.038 10.128-.038" transform="translate(-953.217 -119.157)"/><path d="m955.939 228.68c-3.214 0-6.428.019-9.643-.014a6 6 0 0 1 -2.11-.329 2.983 2.983 0 0 1 .235-5.645 8.407 8.407 0 0 1 2.126-.256q9.476-.028 18.953 0a9.286 9.286 0 0 1 1.965.219 2.98 2.98 0 0 1 .238 5.742 6.408 6.408 0 0 1 -1.956.273c-3.269.027-6.539.012-9.808.012" transform="translate(-942.272 -141.249)"/></g></svg>