<svg height="127.682" viewBox="0 0 127.687 127.682" width="127.687" xmlns="http://www.w3.org/2000/svg"><g fill="#06f"><path d="m0 97.9c.8-3.8 3.27-6.475 5.942-9.088 5.7-5.578 11.288-11.277 16.95-16.9a26.642 26.642 0 0 0 6.09-9.009 30.169 30.169 0 0 1 6.85-10.142q12.937-12.89 25.835-25.82c6.727-6.723 15.887-7.266 23.413-1.394.1.076.206.14.57.387a7.548 7.548 0 0 1 .762-1.066q8.448-8.476 16.9-16.943a2.447 2.447 0 0 1 1.952-.8c2.529.047 5.059.017 7.641.017.367 1.783.753 3.475 1.052 5.182.159.909.494 1.341 1.516 1.333 1.448-.012 2.9.206 4.347.282.774.04 1.074.381 1.1 1.155.046 1.409.26 2.817.25 4.224-.008 1.081.489 1.406 1.446 1.564 1.669.276 3.318.668 5.059 1.028 0 2.827.032 5.607-.035 8.383-.01.4-.437.853-.767 1.184q-8.445 8.479-16.924 16.924a8.442 8.442 0 0 1 -1.105.8 17.294 17.294 0 0 1 4.4 10.894 16.027 16.027 0 0 1 -4.611 12.229q-13.746 13.923-27.671 27.676a27.735 27.735 0 0 1 -9.284 5.92 25.684 25.684 0 0 0 -8.6 5.822c-5.715 5.745-11.5 11.421-17.167 17.21-2.587 2.642-5.233 5.08-9 5.851h-3.743c-3.735-.734-6.368-3.121-8.931-5.733q-9.12-9.293-18.416-18.413c-2.644-2.59-5.059-5.249-5.821-9.017zm63.491-66.831c-.157.145-.313.281-.459.427q-12.34 12.337-24.679 24.675a24.157 24.157 0 0 0 -5.415 8.129 31.589 31.589 0 0 1 -7.263 10.75c-5.2 5.144-10.346 10.337-15.526 15.5a7.444 7.444 0 0 1 -1.025.745l34.335 34.324c.239-.286.506-.661.828-.983q7.881-7.895 15.771-15.781a29.793 29.793 0 0 1 10.033-6.788 27.213 27.213 0 0 0 9.2-6.239q11.77-11.849 23.623-23.617a4.039 4.039 0 0 1 1.123-.594zm32.345 25.843a8.656 8.656 0 0 1 .83-1.119c8.334-8.351 16.643-16.728 25.06-25a5.191 5.191 0 0 0 1.807-4.558c-.07-.726-.292-1.027-.967-1.149-1.263-.227-2.508-.593-3.779-.727-1.158-.123-1.507-.69-1.542-1.761-.052-1.559-.22-3.113-.34-4.695-1.667-.119-3.194-.289-4.724-.317a1.481 1.481 0 0 1 -1.7-1.468c-.184-1.31-.487-2.6-.774-3.9a1.378 1.378 0 0 0 -.435-.827c-.72-.451-3.539.068-4.176.7q-13.177 13.184-26.352 26.359c-.258.258-.5.536-.663.718zm-89.767 37.709c-.084.128-.168.271-.267.4-2.521 3.324-2.133 7.539 1.017 10.695q10.126 10.142 20.272 20.263c.94.939 1.847 1.921 2.854 2.782 2.947 2.519 7.9 2.383 10.1-.167zm60.916-66.6 8.164 8.153c1.131-1.148 2.346-2.4 3.579-3.631s2.468-2.428 3.7-3.638c-3.876-3.894-11.625-4.22-15.444-.884m31.858 31.852 7.958 7.967c3.333-3.974 2.98-11.764-.692-15.235l-7.267 7.268" transform="translate(0 -7.122)"/><path d="m192.793 132.612 31.433 31.431-19.092 19.091-31.434-31.434 19.094-19.091m25.424 31.609-25.549-25.545-13.169 13.169 25.548 25.546 13.17-13.166" transform="translate(-128.909 -100.253)"/><path d="m189.847 282.9a6.1 6.1 0 0 1 -6.119-6.2 6.193 6.193 0 0 1 6.159-6.205 6.332 6.332 0 0 1 6.24 6.186 6.205 6.205 0 0 1 -6.28 6.215m.08-8.212a2 2 0 0 0 -2 1.947 1.9 1.9 0 0 0 1.954 2.072 2.009 2.009 0 0 0 2.061-1.9 2.148 2.148 0 0 0 -2.011-2.124" transform="translate(-136.352 -202.586)"/><path d="m109.846 282.9a6.2 6.2 0 0 1 -6.226-6.236 6.334 6.334 0 0 1 6.231-6.163 6.261 6.261 0 0 1 6.194 6.293 6.146 6.146 0 0 1 -6.2 6.106m1.992-6.2a2.019 2.019 0 0 0 -1.957-2.007 2.119 2.119 0 0 0 -2.06 2.064 1.989 1.989 0 0 0 2.113 1.954 1.915 1.915 0 0 0 1.9-2.01" transform="translate(-76.901 -202.585)"/><path d="m116.044 356.766a6.267 6.267 0 0 1 -6.21 6.154 6.343 6.343 0 0 1 -6.215-6.3 6.213 6.213 0 0 1 12.425.151m-6.152-2.063a1.992 1.992 0 0 0 -2.07 2.006 2.083 2.083 0 0 0 1.977 2.01 1.992 1.992 0 0 0 2.038-2.038 1.924 1.924 0 0 0 -1.945-1.978" transform="translate(-76.899 -261.956)"/><path d="m183.73 356.707a6.128 6.128 0 0 1 6.215-6.209 6.26 6.26 0 0 1 6.183 6.178 6.338 6.338 0 0 1 -6.276 6.246 6.2 6.2 0 0 1 -6.122-6.214m8.209.044a2.016 2.016 0 0 0 -1.914-2.045 1.92 1.92 0 0 0 -2.1 1.932 1.99 1.99 0 0 0 1.862 2.08 2.12 2.12 0 0 0 2.155-1.967" transform="translate(-136.354 -261.955)"/><path d="m229.748 310.654a6.19 6.19 0 0 1 6.162 6.2 6.216 6.216 0 1 1 -12.431-.111 6.186 6.186 0 0 1 6.27-6.084m1.95 6.284a2.008 2.008 0 0 0 -4.009-.218 2.008 2.008 0 1 0 4.009.218" transform="translate(-165.852 -232.385)"/><path d="m156.041 236.869a6.186 6.186 0 1 1 -6.118-6.236 6.19 6.19 0 0 1 6.118 6.236m-4.188 0a1.971 1.971 0 0 0 -1.9-2.029 2.008 2.008 0 1 0 -.049 4.012 1.972 1.972 0 0 0 1.951-1.983" transform="translate(-106.622 -172.998)"/><path d="m63.854 316.78a6.133 6.133 0 0 1 6.2-6.126 6.185 6.185 0 1 1 -6.2 6.126m6.244-1.939a1.926 1.926 0 0 0 -2.039 1.874 2 2 0 0 0 1.933 2.139 2.107 2.107 0 0 0 2.084-2.035 2.018 2.018 0 0 0 -1.978-1.978" transform="translate(-47.389 -232.386)"/><path d="m156.045 396.553a6.186 6.186 0 0 1 -12.372-.04 6.186 6.186 0 1 1 12.372.04m-4.187-.055a2.018 2.018 0 0 0 -1.93-2.025 2.1 2.1 0 0 0 -2.085 2.031 2 2 0 0 0 2.089 1.986 1.93 1.93 0 0 0 1.925-1.992" transform="translate(-106.626 -291.474)"/><path d="m156.032 316.868a6.188 6.188 0 1 1 -6.093-6.222 6.153 6.153 0 0 1 6.093 6.222m-4.182-.081a1.94 1.94 0 0 0 -1.968-1.959 2 2 0 0 0 -2.052 2.029 2.084 2.084 0 0 0 2 1.991 2 2 0 0 0 2.02-2.06" transform="translate(-106.613 -232.379)"/><path d="m402.132 53.01 2.661-2.616 10.17 10.178-2.73 2.539-10.1-10.1" transform="translate(-298.439 -39.236)"/><path d="m354.446 100.542 2.652-2.618 10.241 10.238-2.625 2.652-10.268-10.273" transform="translate(-263.049 -74.51)"/><path d="m343.648 132.683-2.54 2.546-10.193-10.223 2.536-2.511 10.2 10.188" transform="translate(-245.585 -92.745)"/><path d="m391.566 84.837-2.517 2.517-10.149-10.217 2.531-2.473z" transform="translate(-281.197 -57.248)"/></g></svg>