<svg height="117.505" viewBox="0 0 117.583 117.505" width="117.583" xmlns="http://www.w3.org/2000/svg"><g fill="#06f"><path d="m846.3 49.591v2.869c.875.154 1.759.24 2.606.47a9.756 9.756 0 0 1 7.142 9.315c.018 2.776-.035 5.553.034 8.327a3.492 3.492 0 0 0 .654 1.839c1.788 2.472 1.656 5.189.806 7.831-.772 2.4-2.773 3.515-5.262 3.744-.188 1.107-.311 2.238-.578 3.333a13.278 13.278 0 0 1 -4.65 7.291 3.568 3.568 0 0 0 -.683 3.562 2.2 2.2 0 0 0 2.4 1.465 61.326 61.326 0 0 1 7.807.272 13.457 13.457 0 0 1 11.215 13.083c.037 4.572.015 9.145.008 13.717 0 1.616-.687 2.3-2.306 2.3q-49.214 0-98.428 0a5.724 5.724 0 0 1 -5.708-4.616q-3.09-13.7-6.1-27.415a5.847 5.847 0 0 1 5.856-7.15c.895-.006 1.789 0 2.776 0v-40.208c-1.12.6-2.217 1.173-3.306 1.764a6.872 6.872 0 1 1 -6.577-12.063q24.724-13.645 49.444-27.293a2.967 2.967 0 0 1 3.195-.1q24.805 13.727 49.637 27.406a6.867 6.867 0 0 1 3.409 8.114 6.7 6.7 0 0 1 -7.1 4.811 15.4 15.4 0 0 1 -3.963-1.449c-.773-.324-1.492-.775-2.334-1.221m-21.626 34.461a7.208 7.208 0 0 1 -4.362-11.859 2.463 2.463 0 0 0 .468-1.42c.043-2.858.005-5.716.027-8.574a7.639 7.639 0 0 1 5.734-7.358 11.266 11.266 0 0 1 7.009.387c2.108-3.422 5.608-2.467 8.8-2.681 0-1.488.065-2.874-.037-4.247a1.829 1.829 0 0 0 -.789-1.278q-17.789-9.636-35.632-19.168a1.9 1.9 0 0 0 -1.537.009q-17.891 9.565-35.727 19.23a1.6 1.6 0 0 0 -.708 1.168q-.053 20.027-.025 40.053v1.517h1.593q17.2 0 34.405 0a5.679 5.679 0 0 1 5.694 4.293c.27.937.45 1.9.665 2.852.576 2.554 1.15 5.109 1.765 7.844a13.546 13.546 0 0 1 8.9-5.053 55.919 55.919 0 0 1 6.234-.135c3.056-.017 3.543-.483 3.423-3.576a2.36 2.36 0 0 0 -.632-1.311c-.643-.732-1.443-1.327-2.071-2.07a13.643 13.643 0 0 1 -3.193-8.626m-12.231 41.056c-2.162-9.764-4.285-19.378-6.423-28.988-.458-2.056-.9-2.382-3.008-2.382h-41a9.679 9.679 0 0 0 -.979.013 1.969 1.969 0 0 0 -1.844 2.572q2.909 13.172 5.832 26.341c.473 2.126.9 2.444 3.088 2.444h44.331zm43.614-79.683a3.384 3.384 0 0 0 -2.032-2.828q-23.926-13.169-47.828-26.382a1.9 1.9 0 0 0 -2.114-.01q-12.981 7.209-25.99 14.35-11.07 6.108-22.135 12.226a2.805 2.805 0 0 0 -1.6 3.538c.635 1.948 2.537 2.576 4.559 1.487q22.267-11.994 44.519-24.016a3.2 3.2 0 0 1 3.413.02q16.212 8.795 32.463 17.516 6.076 3.275 12.149 6.555c2.2 1.182 4.616-.118 4.592-2.453m-41.276 71.843h1.34q10.892 0 21.784 0c1.858 0 2.55.629 2.453 2.5-.091 1.756-.38 3.5-.584 5.277h12.374c0-3.192-.008-6.324 0-9.455 0-1.446.753-2.266 1.995-2.24 1.179.025 1.9.837 1.9 2.21.013 2.775 0 5.55 0 8.325v1.161h7.743c0-4.331.007-8.6-.011-12.873a5.271 5.271 0 0 0 -.249-1.317c-1.268-4.707-5.183-7.41-10.655-7.29a1.9 1.9 0 0 0 -1.333.713c-6.5 9.541-19.721 9.517-26.269-.066-.186-.272-.492-.624-.766-.647-5.088-.418-9.268 1.936-10.95 6.57a2.539 2.539 0 0 0 -.086 1.314c.392 1.908.845 3.8 1.3 5.816m13.858-46.6c0 3.818-.013 7.973.009 12.128a18.961 18.961 0 0 0 .208 2.92 9.767 9.767 0 0 0 9.583 8.024c4.68-.007 9.092-3.453 9.5-8.05.42-4.74.222-9.536.289-14.307.005-.355-.032-.71-.054-1.166-2.516 0-4.956-.041-7.394.012a11.806 11.806 0 0 1 -5.534-1.277 2.331 2.331 0 0 0 -1.529.017c-1.544.463-3.061 1.015-5.076 1.7m23.5-1.8c0-2.241.087-4.486-.021-6.722a5.842 5.842 0 0 0 -5.823-5.63c-2.529-.063-5.06-.036-7.59-.007a2.043 2.043 0 0 0 -2.232 2.2c-.02.448 0 .9 0 1.347-.015 1.419-.651 2.235-1.8 2.317-1.168.083-1.856-.571-2.116-2.012a2.05 2.05 0 0 0 -2.167-1.9 17.509 17.509 0 0 0 -1.836.007 3.8 3.8 0 0 0 -3.744 3.4c-.171 2.324-.041 4.671-.041 7.293.8-1.657 1.8-2.749 3.409-2.813a9.436 9.436 0 0 0 4.618-1.4 3.007 3.007 0 0 1 3.533.042 8.762 8.762 0 0 0 5.359 1.336c1.956-.075 3.92.051 5.875-.035a4.611 4.611 0 0 1 4.582 2.576m-9.827 28.562h-7.758c0 3.065-1.689 5.107-4.75 6.088 4.637 5.49 13.432 4.877 17.2-.035-3.028-.953-4.677-2.968-4.7-6.053m-25.8 27.636c5.543 0 11.035.091 16.521-.048a3.492 3.492 0 0 0 3.295-3.768h-20.646c.286 1.3.554 2.523.839 3.815m8.182-50.874c-1.766.469-2.094 1.135-1.937 3.69a1.858 1.858 0 0 0 1.937 2.011zm27.484 5.8c1.776-.514 2.174-1.369 1.927-3.851a1.8 1.8 0 0 0 -1.927-1.839z" transform="translate(-750.23 -11.509)"/><path d="m841.793 144.289c0 1.943-.012 3.695 0 5.447a2.146 2.146 0 0 1 -1.195 2.217 2.1 2.1 0 0 1 -2.354-.491c-2.723-2.21-5.447-4.419-8.212-6.575a2.917 2.917 0 0 0 -1.636-.572c-3.344-.052-6.689-.015-10.034-.029a5.794 5.794 0 0 1 -5.929-5.966q-.016-9.732 0-19.464a5.775 5.775 0 0 1 5.86-5.908q15.663-.019 31.326 0a5.772 5.772 0 0 1 5.893 5.875q.023 9.793 0 19.587a5.785 5.785 0 0 1 -5.893 5.878c-2.561.015-5.121 0-7.832 0m-3.893 1.8c0-1.33-.009-2.339 0-3.347.018-1.713.66-2.357 2.37-2.36 2.938-.008 5.877.006 8.814-.006 1.8-.007 2.524-.726 2.527-2.529q.012-9.247 0-18.494c0-1.784-.737-2.5-2.553-2.5q-15.059-.008-30.116 0c-1.891 0-2.6.7-2.6 2.577q-.01 9.185 0 18.371c0 1.875.711 2.573 2.6 2.578 3.509.008 7.02-.047 10.528.04a4.323 4.323 0 0 1 2.308.817c2 1.472 3.9 3.078 6.12 4.856" transform="translate(-790.846 -77.741)"/><path d="m846.774 282.6a5.87 5.87 0 1 1 -5.928-5.847 5.824 5.824 0 0 1 5.928 5.847m-5.816-1.927a1.953 1.953 0 1 0 1.894 2.009 2.043 2.043 0 0 0 -1.894-2.009" transform="translate(-805.606 -184.708)"/><path d="m993.311 225.868a7.8 7.8 0 0 1 -5.032-1.994 1.98 1.98 0 1 1 2.513-3.05c1.9 1.379 3.2 1.379 5.077 0a1.964 1.964 0 0 1 2.834.14 1.987 1.987 0 0 1 -.325 2.915 7.759 7.759 0 0 1 -5.066 1.989" transform="translate(-905.137 -147.843)"/><path d="m987.451 194.929c0-.163 0-.327 0-.49.011-1.574.688-2.409 1.952-2.409s1.944.839 1.954 2.41c0 .49.018.981 0 1.469a1.949 1.949 0 1 1 -3.9 0c-.016-.326 0-.653 0-.98" transform="translate(-905.131 -129.388)"/><path d="m1013.939 194.961c0 2.056-.561 2.912-1.924 2.93-1.38.019-1.981-.853-1.981-2.872 0-.327-.011-.654 0-.98a1.95 1.95 0 1 1 3.9-.058c.018.326 0 .653 0 .98" transform="translate(-919.877 -129.387)"/><path d="m867.317 139.445c-2.489 0-4.979.009-7.468 0-1.437-.007-2.262-.766-2.232-2.006.029-1.18.838-1.892 2.219-1.894q7.591-.013 15.182 0a1.96 1.96 0 1 1 .013 3.9c-2.571.016-5.142 0-7.714 0" transform="translate(-820.352 -92.496)"/><path d="m867.446 152.482c2.49 0 4.979-.007 7.468 0 1.452.006 2.283.736 2.276 1.963s-.838 1.938-2.3 1.94q-7.468.01-14.937 0c-1.486 0-2.308-.686-2.335-1.9-.028-1.277.81-2 2.36-2 2.489-.007 4.979 0 7.468 0" transform="translate(-820.353 -103.562)"/><path d="m867.347 173.335c-2.489 0-4.979.008-7.468 0-1.447-.006-2.276-.745-2.262-1.977s.837-1.923 2.312-1.925q7.468-.009 14.937 0c1.481 0 2.3.694 2.325 1.915.021 1.267-.826 1.985-2.375 1.989-2.489.007-4.979 0-7.468 0" transform="translate(-820.353 -114.627)"/><path d="m837.987 135.538h.245c1.8 0 2.657.629 2.661 1.947s-.856 1.959-2.649 1.962c-.367 0-.734.009-1.1 0a1.958 1.958 0 1 1 -.013-3.9c.286-.009.572 0 .857 0" transform="translate(-805.605 -92.497)"/><path d="m837.9 156.363c-.326 0-.654.019-.979 0a1.948 1.948 0 0 1 .066-3.895c.652-.028 1.307-.03 1.959 0a1.948 1.948 0 0 1 .054 3.892c-.366.024-.734 0-1.1 0" transform="translate(-805.606 -103.538)"/><path d="m837.883 173.292a10.6 10.6 0 0 1 -1.1-.006 1.9 1.9 0 0 1 -1.747-1.992 1.867 1.867 0 0 1 1.725-1.884 17.659 17.659 0 0 1 2.2-.011 1.947 1.947 0 0 1 .023 3.894c-.366.023-.735 0-1.1 0z" transform="translate(-805.606 -114.591)"/></g></svg>